<svg xmlns="http://www.w3.org/2000/svg" viewBox="0 0 64 64" fill="none">
  <rect width="64" height="64" rx="18" fill="#0F6E56"/>
  <path d="M18 18.5C18 16.567 19.567 15 21.5 15H31.5C35.449 15 39.11 16.232 42 18.334C44.89 16.232 48.551 15 52.5 15V42.5C48.981 42.5 45.722 43.639 43.072 45.566C42.433 46.031 41.567 46.031 40.928 45.566C38.278 43.639 35.019 42.5 31.5 42.5H21.5C19.567 42.5 18 40.933 18 39V18.5Z" fill="white"/>
  <path d="M42 18.334V45.23" stroke="#D9F3EA" stroke-width="2.4" stroke-linecap="round"/>
  <path d="M24 23.5H33M24 28.5H35M24 33.5H31" stroke="#0F6E56" stroke-width="2.6" stroke-linecap="round"/>
  <circle cx="46.5" cy="20.5" r="9.5" fill="#B8E8D7"/>
  <path d="M46.5 15.5V25.5M41.5 20.5H51.5" stroke="#0F6E56" stroke-width="3.2" stroke-linecap="round"/>
</svg>
