<svg width="1440" height="900" viewBox="0 0 1440 900" fill="none" xmlns="http://www.w3.org/2000/svg">
  <rect width="1440" height="900" rx="30" fill="#123B32"/>
  <rect x="28" y="28" width="1384" height="844" rx="26" fill="#F7FBF9" stroke="#D9E7E1" stroke-width="2"/>
  <rect x="52" y="56" width="1336" height="110" rx="22" fill="#0F5A43"/>
  <circle cx="106" cy="111" r="26" fill="#32584B" stroke="#6A887B" stroke-width="3"/>
  <circle cx="106" cy="102" r="8" fill="#8D9A91"/>
  <path d="M92 125C92 117.82 97.82 112 105 112H107C114.18 112 120 117.82 120 125V129H92V125Z" fill="#8D9A91"/>
  <text x="146" y="106" fill="#FFFFFF" font-family="Arial, sans-serif" font-size="40" font-weight="700">Welcome back, Julius</text>
  <text x="146" y="140" fill="#D8E9E1" font-family="Arial, sans-serif" font-size="22">juliuswanjau55@gmail.com · Admin</text>
  <rect x="1148" y="82" width="186" height="58" rx="14" fill="#FFFFFF"/>
  <text x="1241" y="118" fill="#0F6E56" font-family="Arial, sans-serif" font-size="22" font-weight="700" text-anchor="middle">Browse Courses</text>
  <path d="M1296 104L1308 116L1296 128" stroke="#0F6E56" stroke-width="4" stroke-linecap="round" stroke-linejoin="round"/>

  <g>
    <rect x="52" y="210" width="300" height="106" rx="18" fill="#FFFFFF" stroke="#E2EBE6" stroke-width="2"/>
    <rect x="78" y="236" width="54" height="54" rx="14" fill="#E8F5F0"/>
    <path d="M95 244H115C119.418 244 123 247.582 123 252V274C123 278.418 119.418 282 115 282H95C90.582 282 87 278.418 87 274V252C87 247.582 90.582 244 95 244Z" stroke="#0F6E56" stroke-width="3"/>
    <path d="M105 244V282" stroke="#0F6E56" stroke-width="3"/>
    <text x="160" y="258" fill="#102233" font-family="Arial, sans-serif" font-size="34" font-weight="700">2</text>
    <text x="160" y="288" fill="#6E7E77" font-family="Arial, sans-serif" font-size="20">Enrolled</text>
  </g>
  <g>
    <rect x="374" y="210" width="300" height="106" rx="18" fill="#FFFFFF" stroke="#E2EBE6" stroke-width="2"/>
    <rect x="400" y="236" width="54" height="54" rx="14" fill="#FFF7E4"/>
    <circle cx="427" cy="263" r="13" stroke="#E09B00" stroke-width="3"/>
    <path d="M427 252V263L434 269" stroke="#E09B00" stroke-width="3" stroke-linecap="round" stroke-linejoin="round"/>
    <text x="482" y="258" fill="#102233" font-family="Arial, sans-serif" font-size="34" font-weight="700">2</text>
    <text x="482" y="288" fill="#6E7E77" font-family="Arial, sans-serif" font-size="20">In Progress</text>
  </g>
  <g>
    <rect x="696" y="210" width="300" height="106" rx="18" fill="#FFFFFF" stroke="#E2EBE6" stroke-width="2"/>
    <rect x="722" y="236" width="54" height="54" rx="14" fill="#F3EEFF"/>
    <circle cx="749" cy="260" r="9" stroke="#7C3AED" stroke-width="3"/>
    <path d="M744 270L749 274L754 270" stroke="#7C3AED" stroke-width="3" stroke-linecap="round" stroke-linejoin="round"/>
    <path d="M749 251V274" stroke="#7C3AED" stroke-width="3"/>
    <text x="804" y="258" fill="#102233" font-family="Arial, sans-serif" font-size="34" font-weight="700">0</text>
    <text x="804" y="288" fill="#6E7E77" font-family="Arial, sans-serif" font-size="20">Certificates</text>
  </g>
  <g>
    <rect x="1018" y="210" width="370" height="106" rx="18" fill="#FFFFFF" stroke="#E2EBE6" stroke-width="2"/>
    <rect x="1044" y="236" width="54" height="54" rx="14" fill="#E8F0FB"/>
    <path d="M1062 246H1080" stroke="#1A6BB5" stroke-width="3" stroke-linecap="round"/>
    <path d="M1065 246V270C1065 273.866 1068.13 277 1072 277C1075.87 277 1079 273.866 1079 270V246" stroke="#1A6BB5" stroke-width="3" stroke-linecap="round" stroke-linejoin="round"/>
    <text x="1126" y="258" fill="#102233" font-family="Arial, sans-serif" font-size="34" font-weight="700">1</text>
    <text x="1126" y="288" fill="#6E7E77" font-family="Arial, sans-serif" font-size="20">Simulations</text>
  </g>

  <text x="66" y="394" fill="#0F6E56" font-family="Arial, sans-serif" font-size="26" font-weight="700">My Courses</text>
  <text x="196" y="394" fill="#0F6E56" font-family="Arial, sans-serif" font-size="24" font-weight="700">2</text>
  <text x="274" y="394" fill="#41524B" font-family="Arial, sans-serif" font-size="24" font-weight="700">Simulations</text>
  <circle cx="426" cy="386" r="14" fill="#F1F4F3"/>
  <text x="426" y="391" fill="#7F8B86" font-family="Arial, sans-serif" font-size="16" font-weight="700" text-anchor="middle">1</text>
  <text x="498" y="394" fill="#41524B" font-family="Arial, sans-serif" font-size="24" font-weight="700">Certificates</text>
  <circle cx="661" cy="386" r="14" fill="#F1F4F3"/>
  <text x="661" y="391" fill="#7F8B86" font-family="Arial, sans-serif" font-size="16" font-weight="700" text-anchor="middle">0</text>
  <text x="732" y="394" fill="#41524B" font-family="Arial, sans-serif" font-size="24" font-weight="700">Profile</text>
  <path d="M52 426H1388" stroke="#E3EBE7" stroke-width="2"/>
  <path d="M52 426H212" stroke="#0F6E56" stroke-width="4" stroke-linecap="round"/>

  <rect x="52" y="456" width="654" height="328" rx="22" fill="#FFFFFF" stroke="#E2EBE6" stroke-width="2"/>
  <rect x="52" y="456" width="244" height="328" fill="#FFFFFF"/>
  <rect x="74" y="572" width="190" height="112" rx="8" fill="#FFFFFF"/>
  <text x="78" y="548" fill="#2C2D73" font-family="Arial, sans-serif" font-size="13" font-weight="700">MASTERING ANTIBIOGRAM DEVELOPMENT</text>
  <text x="78" y="564" fill="#6064A3" font-family="Arial, sans-serif" font-size="10" font-weight="700">FROM LAB DATA TO CLINICAL DECISIONS</text>
  <text x="78" y="612" fill="#232A72" font-family="Arial, sans-serif" font-size="34" font-weight="700">ONLINE</text>
  <text x="78" y="652" fill="#232A72" font-family="Arial, sans-serif" font-size="34" font-weight="700">COURSE</text>
  <circle cx="230" cy="640" r="44" fill="#FFFFFF" stroke="#27256E" stroke-width="8"/>
  <circle cx="230" cy="640" r="28" fill="#DCE7EF"/>
  <rect x="209" y="620" width="42" height="38" rx="4" fill="#E6EEF2"/>
  <rect x="213" y="624" width="18" height="30" fill="#C9D7E0"/>
  <rect x="232" y="624" width="15" height="11" fill="#A6C38F"/>
  <rect x="232" y="637" width="15" height="9" fill="#E0A56A"/>
  <rect x="232" y="648" width="15" height="8" fill="#92A4B6"/>
  <path d="M276 558L296 544V578L276 592V558Z" fill="#43459E"/>
  <path d="M276 594L296 580V618L276 632V594Z" fill="#292C7C"/>
  <path d="M276 634L296 620V684H276V634Z" fill="#2D317F"/>
  <path d="M78 684H116L132 700H78V684Z" fill="#292C7C"/>
  <path d="M132 700H172L186 684H144L132 700Z" fill="#B8B6F0"/>
  <text x="78" y="720" fill="#2D317F" font-family="Arial, sans-serif" font-size="10" font-weight="700">Online • Self-Paced • 8 Weeks</text>

  <rect x="318" y="482" width="132" height="30" rx="15" fill="#E9F7F1"/>
  <text x="336" y="502" fill="#0F6E56" font-family="Arial, sans-serif" font-size="17" font-weight="700">CLINICAL PHARMACY</text>
  <text x="318" y="566" fill="#0A2E1F" font-family="Georgia, serif" font-size="28" font-weight="700">Mastering Antibiogram</text>
  <text x="318" y="604" fill="#0A2E1F" font-family="Georgia, serif" font-size="28" font-weight="700">Development:</text>
  <text x="318" y="642" fill="#0A2E1F" font-family="Georgia, serif" font-size="28" font-weight="700">From Lab Data to Clinical Decisions</text>
  <text x="318" y="696" fill="#556861" font-family="Arial, sans-serif" font-size="20">4 / 17 lessons completed</text>
  <text x="318" y="748" fill="#607068" font-family="Arial, sans-serif" font-size="19">Progress</text>
  <rect x="318" y="762" width="262" height="10" rx="5" fill="#E9ECEA"/>
  <rect x="318" y="762" width="80" height="10" rx="5" fill="#0F6E56"/>
  <text x="600" y="772" fill="#556861" font-family="Arial, sans-serif" font-size="20" font-weight="700" text-anchor="end">24%</text>
  <rect x="588" y="622" width="92" height="52" rx="12" fill="#0F6E56"/>
  <text x="634" y="655" fill="#FFFFFF" font-family="Arial, sans-serif" font-size="22" font-weight="700" text-anchor="middle">Continue</text>
  <path d="M668 648H680" stroke="#FFFFFF" stroke-width="3.5" stroke-linecap="round"/>
  <path d="M674 641L680 648L674 655" stroke="#FFFFFF" stroke-width="3.5" stroke-linecap="round" stroke-linejoin="round"/>

  <rect x="734" y="456" width="654" height="328" rx="22" fill="#FFFFFF" stroke="#E2EBE6" stroke-width="2"/>
  <rect x="756" y="482" width="166" height="30" rx="15" fill="#E9F7F1"/>
  <text x="776" y="502" fill="#0F6E56" font-family="Arial, sans-serif" font-size="17" font-weight="700">HOSPITAL PRACTICE</text>
  <rect x="756" y="596" width="188" height="126" rx="8" fill="#FFFFFF" stroke="#E6EAE8"/>
  <rect x="756" y="596" width="188" height="24" fill="#1B2468"/>
  <text x="766" y="612" fill="#FFFFFF" font-family="Arial, sans-serif" font-size="9" font-weight="700">PROFESSIONAL DEVELOPMENT COURSE</text>
  <path d="M894 596H944V644L894 596Z" fill="#7281E0"/>
  <path d="M892 596H930L944 610V618L916 618L892 596Z" fill="#2E348C"/>
  <rect x="912" y="606" width="20" height="7" rx="3.5" fill="#FF7F2A"/>
  <rect x="768" y="628" width="18" height="8" rx="3" fill="#FF7F2A"/>
  <text x="768" y="664" fill="#243073" font-family="Arial, sans-serif" font-size="14" font-weight="700">ONLINE</text>
  <text x="768" y="688" fill="#243073" font-family="Arial, sans-serif" font-size="14" font-weight="700">COURSE</text>
  <text x="768" y="710" fill="#4A5A8A" font-family="Arial, sans-serif" font-size="8" font-weight="700">Leadership &amp;</text>
  <text x="768" y="720" fill="#4A5A8A" font-family="Arial, sans-serif" font-size="8" font-weight="700">Hospital Pharmacy Management</text>
  <circle cx="898" cy="658" r="28" fill="#DED3B8"/>
  <rect x="876" y="642" width="44" height="24" rx="2" fill="#F6DA4B"/>
  <text x="898" y="658" fill="#FF5A34" font-family="Arial, sans-serif" font-size="10" font-weight="700" text-anchor="middle">LEADERSHIP</text>
  <rect x="756" y="724" width="188" height="16" fill="#F8FAFB"/>
  <rect x="766" y="728" width="26" height="6" rx="3" fill="#E8EDF0"/>
  <rect x="800" y="728" width="34" height="6" rx="3" fill="#E8EDF0"/>
  <rect x="842" y="728" width="30" height="6" rx="3" fill="#E8EDF0"/>
  <rect x="918" y="726" width="22" height="10" rx="2" fill="#FF7F2A"/>

  <text x="978" y="560" fill="#0A2E1F" font-family="Georgia, serif" font-size="28" font-weight="700">Leadership &amp;</text>
  <text x="978" y="598" fill="#0A2E1F" font-family="Georgia, serif" font-size="28" font-weight="700">Hospital Pharmacy</text>
  <text x="978" y="636" fill="#0A2E1F" font-family="Georgia, serif" font-size="28" font-weight="700">Management</text>
  <text x="978" y="692" fill="#556861" font-family="Arial, sans-serif" font-size="20">0 / 1 lessons completed</text>
  <text x="978" y="748" fill="#607068" font-family="Arial, sans-serif" font-size="19">Progress</text>
  <rect x="978" y="762" width="240" height="10" rx="5" fill="#E9ECEA"/>
  <text x="1240" y="772" fill="#556861" font-family="Arial, sans-serif" font-size="20" font-weight="700" text-anchor="end">0%</text>
  <rect x="1274" y="622" width="92" height="52" rx="12" fill="#0F6E56"/>
  <text x="1320" y="655" fill="#FFFFFF" font-family="Arial, sans-serif" font-size="22" font-weight="700" text-anchor="middle">Start</text>
  <path d="M1354 648H1366" stroke="#FFFFFF" stroke-width="3.5" stroke-linecap="round"/>
  <path d="M1360 641L1366 648L1360 655" stroke="#FFFFFF" stroke-width="3.5" stroke-linecap="round" stroke-linejoin="round"/>
</svg>
