<svg width="1440" height="860" viewBox="0 0 1440 860" fill="none" xmlns="http://www.w3.org/2000/svg">
  <rect width="1440" height="860" rx="28" fill="#EEF5F2"/>
  <rect x="20" y="20" width="1400" height="820" rx="24" fill="#F8FBFA" stroke="#DCE7E2" stroke-width="2"/>
  <rect x="20" y="20" width="182" height="820" rx="24" fill="#0F6E56"/>
  <rect x="20" y="20" width="182" height="74" fill="#11765D"/>
  <rect x="36" y="40" width="34" height="34" rx="10" fill="#CCEDE0"/>
  <text x="53" y="61" fill="#0F6E56" font-family="Arial, sans-serif" font-size="20" font-weight="700" text-anchor="middle">Rx</text>
  <text x="80" y="52" fill="#FFFFFF" font-family="Arial, sans-serif" font-size="24" font-weight="700">PharmacyOS</text>
  <text x="80" y="72" fill="#9DE2C9" font-family="Arial, sans-serif" font-size="13">ReMEDcare</text>

  <rect x="34" y="112" width="146" height="124" rx="12" fill="rgba(255,255,255,0.08)" stroke="rgba(255,255,255,0.16)"/>
  <text x="48" y="134" fill="#9DE2C9" font-family="Arial, sans-serif" font-size="11" font-weight="700" letter-spacing="1.2">WORKING BRANCH</text>
  <text x="48" y="156" fill="#FFFFFF" font-family="Arial, sans-serif" font-size="12">Inventory, sales, shifts, patients,</text>
  <text x="48" y="174" fill="#FFFFFF" font-family="Arial, sans-serif" font-size="12">claims, and reports will use this</text>
  <text x="48" y="192" fill="#FFFFFF" font-family="Arial, sans-serif" font-size="12">branch.</text>
  <rect x="48" y="200" width="118" height="30" rx="8" fill="#FFFFFF"/>
  <text x="60" y="219" fill="#102233" font-family="Arial, sans-serif" font-size="11">ReMEDcare (Main)</text>
  <text x="150" y="219" fill="#102233" font-family="Arial, sans-serif" font-size="11">⌄</text>

  <text x="34" y="266" fill="#8FD5BB" font-family="Arial, sans-serif" font-size="12" font-weight="700" letter-spacing="1.4">OVERVIEW</text>
  <rect x="20" y="278" width="182" height="40" fill="rgba(255,255,255,0.12)"/>
  <rect x="20" y="278" width="4" height="40" fill="#C5F0DE"/>
  <text x="58" y="303" fill="#FFFFFF" font-family="Arial, sans-serif" font-size="13" font-weight="700">Dashboard</text>

  <text x="34" y="344" fill="#8FD5BB" font-family="Arial, sans-serif" font-size="12" font-weight="700" letter-spacing="1.4">OPERATIONS</text>
  <g fill="#FFFFFF" font-family="Arial, sans-serif" font-size="12">
    <text x="58" y="374">Inventory</text>
    <text x="58" y="404">Sales &amp; POS</text>
    <text x="58" y="434">Patients</text>
    <text x="58" y="464">Shifts</text>
    <text x="58" y="494">Suppliers</text>
    <text x="58" y="524">Expiry Alerts</text>
    <text x="58" y="554">Credit &amp; Debts</text>
    <text x="58" y="584">Prescriptions</text>
  </g>

  <text x="34" y="634" fill="#8FD5BB" font-family="Arial, sans-serif" font-size="12" font-weight="700" letter-spacing="1.4">FINANCE</text>
  <rect x="34" y="648" width="146" height="112" rx="12" fill="rgba(255,255,255,0.08)" stroke="rgba(255,255,255,0.16)"/>
  <text x="46" y="670" fill="#9DE2C9" font-family="Arial, sans-serif" font-size="11" font-weight="700">ACTIVE POS STAFF</text>
  <text x="46" y="694" fill="#FFFFFF" font-family="Arial, sans-serif" font-size="12" font-weight="700">KAIZEN</text>
  <text x="46" y="714" fill="#D8F3E8" font-family="Arial, sans-serif" font-size="11">Administrator | Signed-in</text>
  <text x="46" y="730" fill="#D8F3E8" font-family="Arial, sans-serif" font-size="11">account</text>
  <rect x="46" y="742" width="64" height="24" rx="8" fill="#8EE9BB"/>
  <text x="78" y="758" fill="#0F6E56" font-family="Arial, sans-serif" font-size="11" font-weight="700" text-anchor="middle">Switch PIN</text>

  <rect x="32" y="774" width="142" height="36" rx="12" fill="#0D6A52"/>
  <circle cx="48" cy="792" r="14" fill="#D7F2E6"/>
  <text x="48" y="797" fill="#0F6E56" font-family="Arial, sans-serif" font-size="12" font-weight="700" text-anchor="middle">M</text>
  <text x="72" y="789" fill="#FFFFFF" font-family="Arial, sans-serif" font-size="11" font-weight="700">Marwadi Phar...</text>
  <text x="72" y="805" fill="#9DE2C9" font-family="Arial, sans-serif" font-size="10">ReMEDcare</text>
  <rect x="138" y="778" width="34" height="26" rx="8" fill="#F04E45"/>
  <text x="155" y="795" fill="#FFFFFF" font-family="Arial, sans-serif" font-size="11" font-weight="700" text-anchor="middle">Out</text>

  <rect x="224" y="40" width="1180" height="54" rx="12" fill="#F5FBF8" stroke="#CDE7D9"/>
  <text x="242" y="62" fill="#6E8379" font-family="Arial, sans-serif" font-size="10" font-weight="700" letter-spacing="1.2">VIEWING BRANCH</text>
  <text x="242" y="82" fill="#0F6E56" font-family="Arial, sans-serif" font-size="18" font-weight="700">ReMEDcare</text>
  <rect x="326" y="66" width="52" height="20" rx="10" fill="#DCE8FF"/>
  <text x="352" y="80" fill="#3957FF" font-family="Arial, sans-serif" font-size="11" font-weight="700" text-anchor="middle">Main</text>
  <text x="956" y="62" fill="#49635B" font-family="Arial, sans-serif" font-size="12">This screen is using the selected working branch for inventory, sales, patients, claims, M-Pesa, and</text>
  <text x="956" y="80" fill="#49635B" font-family="Arial, sans-serif" font-size="12">the other operational records.</text>

  <text x="224" y="132" fill="#102233" font-family="Arial, sans-serif" font-size="18" font-weight="700">Dashboard</text>
  <text x="224" y="158" fill="#6B7C88" font-family="Arial, sans-serif" font-size="12">Operational snapshot for today, this week, and this month.</text>
  <text x="1312" y="152" fill="#6B7C88" font-family="Arial, sans-serif" font-size="12">Thu May 14 2026</text>

  <g>
    <rect x="224" y="180" width="420" height="92" rx="14" fill="#FFFFFF" stroke="#DDE6E2"/>
    <text x="242" y="204" fill="#7A8B94" font-family="Arial, sans-serif" font-size="12">Active Shift</text>
    <text x="242" y="234" fill="#0F6E56" font-family="Arial, sans-serif" font-size="24" font-weight="700">Open</text>
    <text x="242" y="256" fill="#6B7C88" font-family="Arial, sans-serif" font-size="12">KAIZEN since 21:25</text>
  </g>
  <g>
    <rect x="656" y="180" width="420" height="92" rx="14" fill="#FFFFFF" stroke="#DDE6E2"/>
    <text x="674" y="204" fill="#7A8B94" font-family="Arial, sans-serif" font-size="12">Today's Revenue</text>
    <text x="674" y="234" fill="#102233" font-family="Arial, sans-serif" font-size="24" font-weight="700">KES 2,090</text>
    <text x="674" y="256" fill="#6B7C88" font-family="Arial, sans-serif" font-size="12">2 transaction(s) today</text>
  </g>
  <g>
    <rect x="1088" y="180" width="316" height="92" rx="14" fill="#FFFFFF" stroke="#DDE6E2"/>
    <text x="1106" y="204" fill="#7A8B94" font-family="Arial, sans-serif" font-size="12">Month To Date</text>
    <text x="1106" y="234" fill="#102233" font-family="Arial, sans-serif" font-size="24" font-weight="700">KES 2,090</text>
    <text x="1106" y="256" fill="#0F6E56" font-family="Arial, sans-serif" font-size="12">+KES 2,090 vs last month (100.0%)</text>
  </g>

  <g>
    <rect x="224" y="286" width="420" height="92" rx="14" fill="#FFFFFF" stroke="#DDE6E2"/>
    <text x="242" y="310" fill="#7A8B94" font-family="Arial, sans-serif" font-size="12">Outstanding Credit</text>
    <text x="242" y="340" fill="#D62828" font-family="Arial, sans-serif" font-size="24" font-weight="700">KES 0</text>
    <text x="242" y="362" fill="#6B7C88" font-family="Arial, sans-serif" font-size="12">Unpaid credit sales still outstanding</text>
  </g>
  <g>
    <rect x="656" y="286" width="420" height="92" rx="14" fill="#FFFFFF" stroke="#DDE6E2"/>
    <text x="674" y="310" fill="#7A8B94" font-family="Arial, sans-serif" font-size="12">Expiry Alerts</text>
    <text x="674" y="340" fill="#102233" font-family="Arial, sans-serif" font-size="24" font-weight="700">0</text>
    <text x="674" y="362" fill="#6B7C88" font-family="Arial, sans-serif" font-size="12">Items expiring within 30 days</text>
  </g>
  <g>
    <rect x="1088" y="286" width="316" height="92" rx="14" fill="#FFFFFF" stroke="#DDE6E2"/>
    <text x="1106" y="310" fill="#7A8B94" font-family="Arial, sans-serif" font-size="12">Low Stock</text>
    <text x="1106" y="340" fill="#102233" font-family="Arial, sans-serif" font-size="24" font-weight="700">0</text>
    <text x="1106" y="362" fill="#6B7C88" font-family="Arial, sans-serif" font-size="12">Items at or below stock threshold</text>
  </g>

  <rect x="224" y="394" width="760" height="258" rx="14" fill="#FFFFFF" stroke="#DDE6E2"/>
  <text x="242" y="420" fill="#102233" font-family="Arial, sans-serif" font-size="14" font-weight="700">Revenue - Last 7 Days</text>
  <text x="242" y="440" fill="#6B7C88" font-family="Arial, sans-serif" font-size="12">Daily totals with KES scale</text>
  <text x="242" y="476" fill="#8D9BA2" font-family="Arial, sans-serif" font-size="12">KES 2,090</text>
  <text x="242" y="548" fill="#8D9BA2" font-family="Arial, sans-serif" font-size="12">KES 1,045</text>
  <text x="242" y="620" fill="#8D9BA2" font-family="Arial, sans-serif" font-size="12">KES 0</text>
  <rect x="832" y="410" width="124" height="22" rx="11" fill="#E7F7EE"/>
  <text x="894" y="425" fill="#0F6E56" font-family="Arial, sans-serif" font-size="11" font-weight="700" text-anchor="middle">KES 2,090 peak day</text>
  <g>
    <rect x="332" y="496" width="108" height="126" rx="8" fill="#EEF1F0"/>
    <rect x="448" y="496" width="108" height="126" rx="8" fill="#EEF1F0"/>
    <rect x="564" y="496" width="108" height="126" rx="8" fill="#EEF1F0"/>
    <rect x="680" y="496" width="108" height="126" rx="8" fill="#EEF1F0"/>
    <rect x="796" y="496" width="108" height="126" rx="8" fill="#EEF1F0"/>
    <rect x="912" y="496" width="108" height="126" rx="8" fill="#EEF1F0"/>
    <rect x="1028" y="496" width="108" height="126" rx="8" fill="#27A172"/>
  </g>
  <text x="1060" y="480" fill="#8D9BA2" font-family="Arial, sans-serif" font-size="12">KES 2,090</text>
  <g fill="#8D9BA2" font-family="Arial, sans-serif" font-size="12">
    <text x="376" y="642">Fri</text>
    <text x="492" y="642">Sat</text>
    <text x="608" y="642">Sun</text>
    <text x="724" y="642">Mon</text>
    <text x="840" y="642">Tue</text>
    <text x="956" y="642">Wed</text>
    <text x="1072" y="642">Thu</text>
  </g>

  <rect x="998" y="394" width="406" height="258" rx="14" fill="#FFFFFF" stroke="#DDE6E2"/>
  <text x="1016" y="420" fill="#102233" font-family="Arial, sans-serif" font-size="14" font-weight="700">Top 5 Drugs This Week</text>
  <text x="1016" y="440" fill="#6B7C88" font-family="Arial, sans-serif" font-size="12">Ranked by revenue contribution</text>
  <circle cx="1028" cy="484" r="11" fill="#E7F7EE"/><text x="1028" y="489" fill="#0F6E56" font-family="Arial, sans-serif" font-size="11" font-weight="700" text-anchor="middle">1</text>
  <text x="1050" y="474" fill="#102233" font-family="Arial, sans-serif" font-size="13">Amoxicillin 500mg Capsules</text>
  <text x="1050" y="494" fill="#6B7C88" font-family="Arial, sans-serif" font-size="11">5 unit(s)</text>
  <text x="1360" y="490" fill="#6B7C88" font-family="Arial, sans-serif" font-size="12" text-anchor="end">KES 1,250</text>
  <rect x="1050" y="504" width="300" height="6" rx="3" fill="#E8ECEA"/><rect x="1050" y="504" width="290" height="6" rx="3" fill="#27A172"/>
  <circle cx="1028" cy="548" r="11" fill="#E7F7EE"/><text x="1028" y="553" fill="#0F6E56" font-family="Arial, sans-serif" font-size="11" font-weight="700" text-anchor="middle">2</text>
  <text x="1050" y="538" fill="#102233" font-family="Arial, sans-serif" font-size="13">Paracetamol 500mg Tablets</text>
  <text x="1050" y="558" fill="#6B7C88" font-family="Arial, sans-serif" font-size="11">7 unit(s)</text>
  <text x="1360" y="554" fill="#6B7C88" font-family="Arial, sans-serif" font-size="12" text-anchor="end">KES 840</text>
  <rect x="1050" y="568" width="300" height="6" rx="3" fill="#E8ECEA"/><rect x="1050" y="568" width="205" height="6" rx="3" fill="#27A172"/>

  <rect x="224" y="670" width="1180" height="150" rx="14" fill="#FFFFFF" stroke="#DDE6E2"/>
  <text x="242" y="696" fill="#102233" font-family="Arial, sans-serif" font-size="14" font-weight="700">Recent Sales</text>
  <text x="242" y="720" fill="#6B7C88" font-family="Arial, sans-serif" font-size="12">Latest transactions from today's activity</text>
  <g fill="#6B7C88" font-family="Arial, sans-serif" font-size="12">
    <text x="250" y="764">Time</text>
    <text x="376" y="764">Drug</text>
    <text x="820" y="764">Qty</text>
    <text x="920" y="764">Amount (KES)</text>
    <text x="1154" y="764">Payment</text>
    <text x="1316" y="764">Cashier</text>
  </g>
  <path d="M242 780H1368" stroke="#E3EBE7"/>
  <g fill="#102233" font-family="Arial, sans-serif" font-size="12">
    <text x="250" y="804">09:00</text>
    <text x="376" y="804">Paracetamol 500mg Tablets</text>
    <text x="820" y="804">7</text>
    <text x="920" y="804">KES 840</text>
    <text x="1154" y="804">M-Pesa</text>
    <text x="1316" y="804">KAIZEN</text>
  </g>
</svg>
