<svg xmlns="http://www.w3.org/2000/svg" viewBox="0 0 192 192">
  <rect width="192" height="192" rx="42" fill="#0F6E56"/>
  <rect x="28" y="28" width="136" height="136" rx="26" fill="#F8FAFB" opacity="0.12"/>
  <path d="M96 46c6.6 0 12 5.4 12 12v18h18c6.6 0 12 5.4 12 12s-5.4 12-12 12h-18v18c0 6.6-5.4 12-12 12s-12-5.4-12-12v-18H66c-6.6 0-12-5.4-12-12s5.4-12 12-12h18V58c0-6.6 5.4-12 12-12z" fill="#9FE1CB"/>
  <text x="96" y="154" text-anchor="middle" font-family="Segoe UI, Arial, sans-serif" font-size="22" font-weight="700" fill="#F8FAFB">RC</text>
</svg>
