<svg width="1440" height="820" viewBox="0 0 1440 820" fill="none" xmlns="http://www.w3.org/2000/svg">
  <rect width="1440" height="820" rx="26" fill="#EEF3F1"/>
  <rect x="18" y="18" width="1404" height="784" rx="22" fill="#F7FAF9" stroke="#DCE7E2" stroke-width="2"/>
  <rect x="18" y="18" width="182" height="784" rx="22" fill="#0F6E56"/>
  <rect x="18" y="18" width="182" height="74" fill="#11765D"/>
  <circle cx="45" cy="55" r="14" fill="#CBEBDD"/>
  <text x="45" y="60" fill="#0F6E56" font-family="Arial, sans-serif" font-size="13" font-weight="700" text-anchor="middle">RC</text>
  <text x="68" y="50" fill="#FFFFFF" font-family="Arial, sans-serif" font-size="24" font-weight="700">REMEDACARE HMS</text>
  <text x="68" y="72" fill="#9DE2C9" font-family="Arial, sans-serif" font-size="14">Julius Real Hospitals</text>

  <text x="32" y="130" fill="#8FD5BB" font-family="Arial, sans-serif" font-size="12" font-weight="700" letter-spacing="1.4">OVERVIEW</text>
  <rect x="18" y="144" width="182" height="40" fill="rgba(255,255,255,0.12)"/>
  <rect x="18" y="144" width="4" height="40" fill="#C5F0DE"/>
  <text x="60" y="169" fill="#FFFFFF" font-family="Arial, sans-serif" font-size="13" font-weight="700">Dashboard</text>

  <text x="32" y="210" fill="#8FD5BB" font-family="Arial, sans-serif" font-size="12" font-weight="700" letter-spacing="1.4">CLINICAL</text>
  <g fill="#FFFFFF" font-family="Arial, sans-serif" font-size="12">
    <text x="60" y="242">Patients</text>
    <text x="60" y="272">Consultation</text>
    <text x="60" y="302">Ward &amp; Beds</text>
    <text x="60" y="332">Laboratory</text>
    <text x="60" y="362">Antibiogram</text>
    <text x="60" y="392">Prescriptions</text>
    <text x="60" y="422">Expiry Alerts</text>
  </g>

  <text x="32" y="460" fill="#8FD5BB" font-family="Arial, sans-serif" font-size="12" font-weight="700" letter-spacing="1.4">OPERATIONS</text>
  <g fill="#FFFFFF" font-family="Arial, sans-serif" font-size="12">
    <text x="60" y="492">Pharmacy &amp; POS</text>
    <text x="60" y="522">Drug Inventory</text>
    <text x="60" y="552">Billing</text>
    <text x="60" y="582">Credit &amp; Debts</text>
  </g>

  <text x="32" y="620" fill="#8FD5BB" font-family="Arial, sans-serif" font-size="12" font-weight="700" letter-spacing="1.4">FINANCE</text>
  <g fill="#FFFFFF" font-family="Arial, sans-serif" font-size="12">
    <text x="60" y="652">M-Pesa</text>
    <text x="60" y="682">SHA Claims</text>
    <text x="60" y="712">Insurance Claims</text>
    <text x="60" y="742">eTIMS / KRA</text>
  </g>

  <rect x="30" y="742" width="140" height="44" rx="14" fill="#0D6A52"/>
  <circle cx="48" cy="764" r="16" fill="#D7F2E6"/>
  <text x="48" y="769" fill="#0F6E56" font-family="Arial, sans-serif" font-size="12" font-weight="700" text-anchor="middle">PR</text>
  <text x="73" y="759" fill="#FFFFFF" font-family="Arial, sans-serif" font-size="12" font-weight="700">prafulshinde61...</text>
  <text x="73" y="777" fill="#9DE2C9" font-family="Arial, sans-serif" font-size="11">admin</text>

  <text x="230" y="76" fill="#102233" font-family="Arial, sans-serif" font-size="18" font-weight="700">Dashboard</text>
  <text x="230" y="102" fill="#6B7C88" font-family="Arial, sans-serif" font-size="12">Thursday, 14 May 2026 - auto-refreshes every 60 seconds</text>
  <rect x="1212" y="62" width="68" height="28" rx="8" fill="#FFFFFF" stroke="#D8E4DE"/>
  <text x="1246" y="80" fill="#102233" font-family="Arial, sans-serif" font-size="12" font-weight="700" text-anchor="middle">Refresh</text>
  <rect x="1288" y="62" width="104" height="28" rx="8" fill="#1AA24A"/>
  <text x="1340" y="80" fill="#FFFFFF" font-family="Arial, sans-serif" font-size="12" font-weight="700" text-anchor="middle">+ Admit Patient</text>

  <g>
    <rect x="230" y="130" width="160" height="78" rx="12" fill="#FFFFFF" stroke="#DDE6E2"/>
    <text x="248" y="151" fill="#677B86" font-family="Arial, sans-serif" font-size="10" font-weight="700" letter-spacing="1.2">TODAY'S REVENUE</text>
    <text x="248" y="182" fill="#0F9D45" font-family="Arial, sans-serif" font-size="18" font-weight="700">KES 0</text>
    <text x="248" y="197" fill="#97A7AE" font-family="Arial, sans-serif" font-size="10">Collected today</text>
  </g>
  <g>
    <rect x="402" y="130" width="160" height="78" rx="12" fill="#FFFFFF" stroke="#DDE6E2"/>
    <text x="420" y="151" fill="#677B86" font-family="Arial, sans-serif" font-size="10" font-weight="700" letter-spacing="1.2">TRANSACTIONS</text>
    <text x="420" y="182" fill="#3957FF" font-family="Arial, sans-serif" font-size="18" font-weight="700">0</text>
    <text x="420" y="197" fill="#97A7AE" font-family="Arial, sans-serif" font-size="10">Sales today</text>
  </g>
  <g>
    <rect x="574" y="130" width="160" height="78" rx="12" fill="#FFFFFF" stroke="#DDE6E2"/>
    <text x="592" y="151" fill="#677B86" font-family="Arial, sans-serif" font-size="10" font-weight="700" letter-spacing="1.2">REGISTERED PATIENTS</text>
    <text x="592" y="182" fill="#7C3AED" font-family="Arial, sans-serif" font-size="18" font-weight="700">0</text>
    <text x="592" y="197" fill="#97A7AE" font-family="Arial, sans-serif" font-size="10">Total today</text>
  </g>
  <g>
    <rect x="746" y="130" width="160" height="78" rx="12" fill="#FFFFFF" stroke="#DDE6E2"/>
    <text x="764" y="151" fill="#677B86" font-family="Arial, sans-serif" font-size="10" font-weight="700" letter-spacing="1.2">ACTIVE ADMISSIONS</text>
    <text x="764" y="182" fill="#0F9D45" font-family="Arial, sans-serif" font-size="18" font-weight="700">0</text>
    <text x="764" y="197" fill="#97A7AE" font-family="Arial, sans-serif" font-size="10">Inpatients</text>
  </g>
  <g>
    <rect x="918" y="130" width="160" height="78" rx="12" fill="#FFFFFF" stroke="#DDE6E2"/>
    <text x="936" y="151" fill="#677B86" font-family="Arial, sans-serif" font-size="10" font-weight="700" letter-spacing="1.2">DOCTOR QUEUE</text>
    <text x="936" y="182" fill="#B79E8F" font-family="Arial, sans-serif" font-size="18" font-weight="700">0</text>
    <text x="936" y="197" fill="#97A7AE" font-family="Arial, sans-serif" font-size="10">Awaiting review</text>
  </g>
  <g>
    <rect x="1090" y="130" width="160" height="78" rx="12" fill="#FFFFFF" stroke="#DDE6E2"/>
    <text x="1108" y="151" fill="#677B86" font-family="Arial, sans-serif" font-size="10" font-weight="700" letter-spacing="1.2">PENDING RX</text>
    <text x="1108" y="182" fill="#B79E8F" font-family="Arial, sans-serif" font-size="18" font-weight="700">0</text>
    <text x="1108" y="197" fill="#97A7AE" font-family="Arial, sans-serif" font-size="10">Awaiting pharmacist review</text>
  </g>
  <g>
    <rect x="1262" y="130" width="160" height="78" rx="12" fill="#FFFFFF" stroke="#DDE6E2"/>
    <text x="1280" y="151" fill="#677B86" font-family="Arial, sans-serif" font-size="10" font-weight="700" letter-spacing="1.2">APPROVED RX</text>
    <text x="1280" y="182" fill="#B79E8F" font-family="Arial, sans-serif" font-size="18" font-weight="700">0</text>
    <text x="1280" y="197" fill="#97A7AE" font-family="Arial, sans-serif" font-size="10">Ready for release</text>
  </g>

  <g>
    <rect x="230" y="220" width="160" height="78" rx="12" fill="#FFFFFF" stroke="#DDE6E2"/>
    <text x="248" y="241" fill="#677B86" font-family="Arial, sans-serif" font-size="10" font-weight="700" letter-spacing="1.2">PENDING LABS</text>
    <text x="248" y="272" fill="#B79E8F" font-family="Arial, sans-serif" font-size="18" font-weight="700">0</text>
    <text x="248" y="287" fill="#97A7AE" font-family="Arial, sans-serif" font-size="10">All clear</text>
  </g>
  <g>
    <rect x="402" y="220" width="160" height="78" rx="12" fill="#FFFFFF" stroke="#DDE6E2"/>
    <text x="420" y="241" fill="#677B86" font-family="Arial, sans-serif" font-size="10" font-weight="700" letter-spacing="1.2">FREE BEDS</text>
    <text x="420" y="272" fill="#0F9D45" font-family="Arial, sans-serif" font-size="18" font-weight="700">105</text>
    <text x="420" y="287" fill="#97A7AE" font-family="Arial, sans-serif" font-size="10">Available now</text>
  </g>
  <g>
    <rect x="574" y="220" width="160" height="78" rx="12" fill="#FFFFFF" stroke="#DDE6E2"/>
    <text x="592" y="241" fill="#677B86" font-family="Arial, sans-serif" font-size="10" font-weight="700" letter-spacing="1.2">LOW STOCK ITEMS</text>
    <text x="592" y="272" fill="#B79E8F" font-family="Arial, sans-serif" font-size="18" font-weight="700">0</text>
    <text x="592" y="287" fill="#97A7AE" font-family="Arial, sans-serif" font-size="10">Stock OK</text>
  </g>
  <g>
    <rect x="746" y="220" width="160" height="78" rx="12" fill="#FFFFFF" stroke="#DDE6E2"/>
    <text x="764" y="241" fill="#677B86" font-family="Arial, sans-serif" font-size="10" font-weight="700" letter-spacing="1.2">DISCHARGED TODAY</text>
    <text x="764" y="272" fill="#0F9D45" font-family="Arial, sans-serif" font-size="18" font-weight="700">0</text>
    <text x="764" y="287" fill="#97A7AE" font-family="Arial, sans-serif" font-size="10">Completed</text>
  </g>
  <g>
    <rect x="918" y="220" width="160" height="78" rx="12" fill="#FFFFFF" stroke="#DDE6E2"/>
    <text x="936" y="241" fill="#677B86" font-family="Arial, sans-serif" font-size="10" font-weight="700" letter-spacing="1.2">UNPAID INVOICES</text>
    <text x="936" y="272" fill="#B79E8F" font-family="Arial, sans-serif" font-size="18" font-weight="700">0</text>
    <text x="936" y="287" fill="#97A7AE" font-family="Arial, sans-serif" font-size="10">All settled</text>
  </g>

  <rect x="230" y="318" width="1192" height="146" rx="14" fill="#FFFFFF" stroke="#DDE6E2"/>
  <text x="248" y="346" fill="#102233" font-family="Arial, sans-serif" font-size="14" font-weight="700">Today's Finance Reconciliation</text>
  <rect x="1302" y="330" width="104" height="24" rx="8" fill="#FFFFFF" stroke="#DDE6E2"/>
  <text x="1354" y="346" fill="#102233" font-family="Arial, sans-serif" font-size="11" font-weight="700" text-anchor="middle">View Billing →</text>

  <rect x="230" y="364" width="240" height="62" fill="#FCFBF5"/>
  <rect x="470" y="364" width="240" height="62" fill="#ECFAF0"/>
  <rect x="710" y="364" width="240" height="62" fill="#EEF4FF"/>
  <rect x="950" y="364" width="240" height="62" fill="#FFF5D9"/>
  <rect x="1190" y="364" width="116" height="62" fill="#F2EEFF"/>
  <rect x="1306" y="364" width="116" height="62" fill="#ECFAF0"/>
  <g font-family="Arial, sans-serif">
    <text x="248" y="383" fill="#677B86" font-size="11" font-weight="700">CASH</text>
    <text x="248" y="406" fill="#102233" font-size="14" font-weight="700">KES 0</text>
    <text x="488" y="383" fill="#677B86" font-size="11" font-weight="700">M-PESA</text>
    <text x="488" y="406" fill="#0F9D45" font-size="14" font-weight="700">KES 0</text>
    <text x="728" y="383" fill="#677B86" font-size="11" font-weight="700">SHA</text>
    <text x="728" y="406" fill="#3957FF" font-size="14" font-weight="700">KES 0</text>
    <text x="968" y="383" fill="#677B86" font-size="11" font-weight="700">INSURANCE</text>
    <text x="968" y="406" fill="#DA8A00" font-size="14" font-weight="700">KES 0</text>
    <text x="1208" y="383" fill="#677B86" font-size="11" font-weight="700">CREDIT</text>
    <text x="1208" y="406" fill="#7C3AED" font-size="14" font-weight="700">KES 0</text>
    <text x="1324" y="383" fill="#677B86" font-size="11" font-weight="700">TOTAL COLLECTED</text>
    <text x="1324" y="406" fill="#0F9D45" font-size="14" font-weight="700">KES 0</text>
  </g>
  <text x="248" y="448" fill="#677B86" font-family="Arial, sans-serif" font-size="11">SHA Pending: <tspan fill="#3957FF" font-weight="700">0</tspan> claims</text>
  <text x="372" y="448" fill="#677B86" font-family="Arial, sans-serif" font-size="11">Insurance Pending: <tspan fill="#DA8A00" font-weight="700">0</tspan> claims</text>
  <text x="548" y="448" fill="#677B86" font-family="Arial, sans-serif" font-size="11">M-Pesa Unconfirmed: <tspan fill="#E53935" font-weight="700">0</tspan></text>
  <text x="692" y="448" fill="#677B86" font-family="Arial, sans-serif" font-size="11">Unpaid Invoices: <tspan fill="#E53935" font-weight="700">0</tspan></text>
  <text x="1170" y="448" fill="#3957FF" font-family="Arial, sans-serif" font-size="11" font-weight="700">SHA Claims →</text>
  <text x="1260" y="448" fill="#DA8A00" font-family="Arial, sans-serif" font-size="11" font-weight="700">Insurance →</text>
  <text x="1340" y="448" fill="#0F9D45" font-family="Arial, sans-serif" font-size="11" font-weight="700">M-Pesa →</text>

  <rect x="230" y="482" width="744" height="188" rx="14" fill="#FFFFFF" stroke="#DDE6E2"/>
  <text x="248" y="506" fill="#102233" font-family="Arial, sans-serif" font-size="14" font-weight="700">Weekly Revenue</text>
  <text x="908" y="506" fill="#677B86" font-family="Arial, sans-serif" font-size="12">Last 7 days</text>
  <g>
    <rect x="252" y="528" width="114" height="110" rx="4" fill="#F0F3F4"/>
    <rect x="372" y="528" width="114" height="110" rx="4" fill="#F0F3F4"/>
    <rect x="492" y="528" width="114" height="110" rx="4" fill="#F0F3F4"/>
    <rect x="612" y="528" width="114" height="110" rx="4" fill="#F0F3F4"/>
    <rect x="732" y="528" width="114" height="110" rx="4" fill="#F0F3F4"/>
    <rect x="852" y="528" width="114" height="110" rx="4" fill="#F0F3F4"/>
  </g>
  <rect x="252" y="634" width="114" height="4" rx="2" fill="#8EE9BB"/>
  <rect x="372" y="634" width="114" height="4" rx="2" fill="#8EE9BB"/>
  <rect x="492" y="634" width="114" height="4" rx="2" fill="#8EE9BB"/>
  <rect x="612" y="634" width="114" height="4" rx="2" fill="#8EE9BB"/>
  <rect x="732" y="634" width="114" height="4" rx="2" fill="#8EE9BB"/>
  <rect x="852" y="634" width="114" height="4" rx="2" fill="#0F9D45"/>
  <g fill="#677B86" font-family="Arial, sans-serif" font-size="12">
    <text x="300" y="652">Fri</text>
    <text x="420" y="652">Sat</text>
    <text x="540" y="652">Sun</text>
    <text x="660" y="652">Mon</text>
    <text x="780" y="652">Tue</text>
    <text x="900" y="652">Thu</text>
  </g>

  <rect x="992" y="482" width="430" height="88" rx="14" fill="#FFFFFF" stroke="#DDE6E2"/>
  <text x="1010" y="506" fill="#102233" font-family="Arial, sans-serif" font-size="14" font-weight="700">Recent Sales</text>
  <text x="1368" y="506" fill="#677B86" font-family="Arial, sans-serif" font-size="12">Today</text>
  <text x="1200" y="540" fill="#C2AEB6" font-family="Arial, sans-serif" font-size="13" text-anchor="middle">No sales today</text>

  <rect x="230" y="688" width="448" height="100" rx="14" fill="#FFFFFF" stroke="#DDE6E2"/>
  <rect x="696" y="688" width="448" height="100" rx="14" fill="#FFFFFF" stroke="#DDE6E2"/>
  <rect x="1162" y="688" width="260" height="100" rx="14" fill="#FFFFFF" stroke="#DDE6E2"/>
  <text x="248" y="712" fill="#102233" font-family="Arial, sans-serif" font-size="14" font-weight="700">Pending Labs</text>
  <text x="648" y="712" fill="#F59E0B" font-family="Arial, sans-serif" font-size="13" font-weight="700">0</text>
  <text x="714" y="712" fill="#102233" font-family="Arial, sans-serif" font-size="14" font-weight="700">Prescription Queue</text>
  <text x="1114" y="712" fill="#3957FF" font-family="Arial, sans-serif" font-size="13" font-weight="700">0</text>
  <text x="1180" y="712" fill="#102233" font-family="Arial, sans-serif" font-size="14" font-weight="700">Payment Mix</text>
  <text x="1372" y="712" fill="#677B86" font-family="Arial, sans-serif" font-size="12">This week</text>
  <text x="410" y="752" fill="#C2AEB6" font-family="Arial, sans-serif" font-size="13" text-anchor="middle">No pending tests</text>
  <text x="878" y="752" fill="#C2AEB6" font-family="Arial, sans-serif" font-size="13" text-anchor="middle">No prescriptions waiting</text>
  <text x="1292" y="762" fill="#C2AEB6" font-family="Arial, sans-serif" font-size="13" text-anchor="middle">No transactions yet</text>
</svg>
